<svg width="19" height="19" viewBox="0 0 19 19" fill="none" xmlns="http://www.w3.org/2000/svg">
<path d="M6.19565 11.5652C5.96765 11.5652 5.78259 11.7503 5.78259 11.9783V16.9348C5.78263 18.0731 6.70865 19 7.84783 19H16.9348C18.0739 19 19 18.0731 19 16.9348V2.06524C19 0.926906 18.0739 3.82333e-05 16.9348 3.82333e-05H7.84783C6.70865 3.82333e-05 5.78263 0.926906 5.78263 2.06524V7.02176C5.78263 7.24976 5.96769 7.43482 6.19569 7.43482C6.42369 7.43482 6.6087 7.24976 6.6087 7.02176V2.06524C6.6087 1.38205 7.16465 0.826111 7.84783 0.826111H16.9348C17.618 0.826111 18.1739 1.38205 18.1739 2.06524V16.9348C18.1739 17.618 17.618 18.1739 16.9348 18.1739H7.84783C7.16465 18.1739 6.6087 17.618 6.6087 16.9348V11.9783C6.6087 11.7503 6.42365 11.5652 6.19565 11.5652Z" fill="black"/>
<path d="M0.413033 9.91302L13.6304 9.91302C13.8584 9.91302 14.0435 9.72797 14.0435 9.49997C14.0435 9.27197 13.8584 9.08695 13.6304 9.08695L0.413033 9.08695C0.185034 9.08695 -2.23802e-05 9.27201 -2.23802e-05 9.50001C-2.23802e-05 9.72801 0.185034 9.91302 0.413033 9.91302Z" fill="black"/>
<path d="M0.121439 9.79079L2.59969 12.269C2.76078 12.4301 3.02266 12.4301 3.18375 12.269C3.34484 12.108 3.34484 11.8461 3.18375 11.685L0.997929 9.49917L3.18375 7.31334C3.34484 7.15226 3.34484 6.89037 3.18375 6.72929C3.10278 6.64917 2.99707 6.60867 2.89132 6.60867C2.78556 6.60867 2.67985 6.64913 2.59969 6.72844L0.121439 9.20669C-0.0396481 9.36782 -0.0396481 9.6297 0.121439 9.79079Z" fill="black"/>
</svg>
